<svg width="547.2495605468749px" height="122px" xmlns="http://www.w3.org/2000/svg" viewBox="-23.624780273437466 14 547.2495605468749 122" style="background:#fff" preserveAspectRatio="xMidYMid"><defs><filter id="editing-marble" x="-100%" y="-100%" width="300%" height="300%"><feFlood flood-color="#b44607" result="flood-1"></feFlood><feComposite operator="in" in="flood-1" in2="SourceAlpha" result="flood-2"></feComposite><feTurbulence baseFrequency="0.07" type="fractalNoise" numOctaves="1" seed="2" result="bs-1"></feTurbulence><feGaussianBlur stdDeviation="1" in="flood-2" result="bs-2"></feGaussianBlur><feDisplacementMap scale="110" in="bs-2" in2="bs-1" result="bs-3"></feDisplacementMap><feComposite operator="in" in="bs-3" in2="SourceAlpha" result="texture"></feComposite><feMerge><feMergeNode in="SourceGraphic"></feMergeNode><feMergeNode in="texture"></feMergeNode></feMerge></filter></defs><g filter="url(#editing-marble)"><g transform="translate(55.91563272476196, 104.47000122070312)"><path d="M6.21-31.17L6.21-31.17L6.21-31.17Q4.03-32.83 4.03-36.38L4.03-36.38L4.03-36.38Q4.03-39.94 6.37-41.79L6.37-41.79L6.37-41.79Q8.70-43.65 12.74-43.65L12.74-43.65L12.74-43.65Q15.30-43.65 21.38-42.75L21.38-42.75L25.73-42.11L25.73-42.11Q27.90-41.86 30.18-41.86L30.18-41.86L30.18-41.86Q32.45-41.86 33.98-42.82L33.98-42.82L33.98-42.82Q36.29-40.77 36.29-37.82L36.29-37.82L36.29-37.82Q36.29-34.88 33.66-32.77L33.66-32.77L33.66-32.77Q30.98-30.53 27.52-30.53L27.52-30.53L27.52-30.53Q25.86-30.53 23.17-30.98L23.17-30.98L23.17-30.98Q20.03-21.12 20.03-14.27L20.03-14.27L20.03-14.27Q20.03-7.42 23.49-3.84L23.49-3.84L23.49-3.84Q21.89-0.96 19.52 0.16L19.52 0.16L19.52 0.16Q17.15 1.28 13.60 1.28L13.60 1.28L13.60 1.28Q10.05 1.28 7.84-0.67L7.84-0.67L7.84-0.67Q5.63-2.62 5.63-6.66L5.63-6.66L5.63-6.66Q5.63-11.33 8.19-19.01L8.19-19.01L8.19-19.01Q10.75-26.62 14.59-32.45L14.59-32.45L14.59-32.45Q12.74-32.64 10.82-32.64L10.82-32.64L10.82-32.64Q6.85-32.64 6.21-31.17ZM34.08-1.92L34.08-1.92L34.08-1.92Q32.58-3.58 31.90-6.21L31.90-6.21L31.90-6.21Q31.23-8.83 31.23-13.12L31.23-13.12L31.23-13.12Q31.23-17.41 32.70-21.31L32.70-21.31L32.70-21.31Q34.18-25.22 36.86-28.03L36.86-28.03L36.86-28.03Q42.37-33.92 51.46-33.92L51.46-33.92L51.46-33.92Q54.72-33.92 57.09-32.83L57.09-32.83L68.03-33.92L63.30-8.96L63.30-8.96Q63.10-8.19 63.10-6.78L63.10-6.78L63.10-6.78Q63.10-5.38 63.97-4.48L63.97-4.48L63.97-4.48Q64.83-3.58 66.11-3.46L66.11-3.46L66.11-3.46Q65.47-1.28 63.14 0L63.14 0L63.14 0Q60.80 1.28 58.18 1.28L58.18 1.28L58.18 1.28Q55.55 1.28 53.79 0.29L53.79 0.29L53.79 0.29Q52.03-0.70 51.52-2.37L51.52-2.37L51.52-2.37Q50.50-0.77 48.32 0.26L48.32 0.26L48.32 0.26Q46.14 1.28 43.23 1.28L43.23 1.28L43.23 1.28Q40.32 1.28 37.95 0.51L37.95 0.51L37.95 0.51Q35.58-0.26 34.08-1.92ZM47.58-27.90L47.58-27.90L47.58-27.90Q46.85-26.75 46.21-24.80L46.21-24.80L46.21-24.80Q45.57-22.85 44.51-17.63L44.51-17.63L44.51-17.63Q43.46-12.42 43.46-8.70L43.46-8.70L43.46-8.70Q43.46-4.99 44.03-3.90L44.03-3.90L44.03-3.90Q44.61-2.82 45.63-2.82L45.63-2.82L45.63-2.82Q47.68-2.82 49.18-4.77L49.18-4.77L49.18-4.77Q50.69-6.72 51.26-10.18L51.26-10.18L54.66-28.93L54.66-28.93Q53.31-30.08 51.74-30.08L51.74-30.08L51.74-30.08Q50.18-30.08 49.25-29.57L49.25-29.57L49.25-29.57Q48.32-29.06 47.58-27.90ZM90.62-22.46L90.62-22.46L90.62-22.46Q91.52-24.83 91.52-26.88L91.52-26.88L91.52-26.88Q91.52-30.66 88.45-30.66L88.45-30.66L88.45-30.66Q86.85-30.66 85.54-29.22L85.54-29.22L85.54-29.22Q84.22-27.78 84.22-25.98L84.22-25.98L84.22-25.98Q84.22-24.70 85.25-23.68L85.25-23.68L85.25-23.68Q86.72-22.27 90.50-19.97L90.50-19.97L90.50-19.97Q94.27-17.66 95.71-15.78L95.71-15.78L95.71-15.78Q97.15-13.89 97.15-11.30L97.15-11.30L97.15-11.30Q97.15-8.70 95.90-6.34L95.90-6.34L95.90-6.34Q94.66-3.97 92.42-2.30L92.42-2.30L92.42-2.30Q87.62 1.28 79.94 1.28L79.94 1.28L79.94 1.28Q75.78 1.28 72.58-0.90L72.58-0.90L72.58-0.90Q69.38-3.01 69.38-5.50L69.38-5.50L69.38-5.50Q69.38-8 71.20-9.47L71.20-9.47L71.20-9.47Q73.02-10.94 75.71-10.94L75.71-10.94L75.71-10.94Q78.40-10.94 80.06-9.92L80.06-9.92L80.06-9.92Q79.23-7.81 79.23-6.40L79.23-6.40L79.23-6.40Q79.23-2.18 82.82-2.18L82.82-2.18L82.82-2.18Q84.35-2.18 85.38-3.14L85.38-3.14L85.38-3.14Q86.40-4.10 86.40-5.76L86.40-5.76L86.40-5.76Q86.40-9.02 80.90-12.48L80.90-12.48L80.90-12.48Q76.42-15.42 75.39-16.58L75.39-16.58L75.39-16.58Q73.66-18.62 73.66-21.18L73.66-21.18L73.66-21.18Q73.66-23.74 74.88-26.18L74.88-26.18L74.88-26.18Q76.10-28.61 78.34-30.34L78.34-30.34L78.34-30.34Q83.01-33.92 91.14-33.92L91.14-33.92L91.14-33.92Q95.30-33.92 97.76-32.26L97.76-32.26L97.76-32.26Q100.22-30.59 100.22-27.78L100.22-27.78L100.22-27.78Q100.22-24.96 98.53-23.36L98.53-23.36L98.53-23.36Q96.83-21.76 93.76-21.76L93.76-21.76L93.76-21.76Q91.65-21.76 90.62-22.46ZM103.62-6.40L103.62-6.40L103.62-6.40Q103.62-8.13 104.51-12.48L104.51-12.48L107.90-29.76L104.13-29.76L104.38-31.68L104.38-31.68Q112.06-33.98 119.49-39.62L119.49-39.62L122.56-39.62L121.02-32.64L126.02-32.64L125.44-29.76L120.51-29.76L117.25-12.48L117.25-12.48Q116.42-8.51 116.42-7.17L116.42-7.17L116.42-7.17Q116.42-4.10 119.10-3.46L119.10-3.46L119.10-3.46Q118.46-1.28 116.16 0L116.16 0L116.16 0Q113.86 1.28 110.59 1.28L110.59 1.28L110.59 1.28Q107.33 1.28 105.47-0.77L105.47-0.77L105.47-0.77Q103.62-2.82 103.62-6.40ZM146.05-7.23L146.05-7.23L146.05-7.23Q142.72-3.78 136.64-3.78L136.64-3.78L136.64-3.78Q129.02-3.78 127.42-9.34L127.42-9.34L127.42-9.34Q126.91-11.01 126.91-12.86L126.91-12.86L126.91-12.86Q126.91-14.72 127.30-16.64L127.30-16.64L130.30-32.64L143.30-33.92L139.78-15.30L139.78-15.30Q139.65-14.46 139.46-13.57L139.46-13.57L139.46-13.57Q139.26-12.67 139.26-11.74L139.26-11.74L139.26-11.74Q139.26-10.82 139.58-10.21L139.58-10.21L139.58-10.21Q139.90-9.60 140.35-9.22L140.35-9.22L140.35-9.22Q141.12-8.70 142.50-8.70L142.50-8.70L142.50-8.70Q143.87-8.70 145.06-10.37L145.06-10.37L145.06-10.37Q146.24-12.03 146.82-14.91L146.82-14.91L150.34-32.64L162.94-33.92L158.14-8.77L158.14-8.77Q155.78 3.52 150.91 8.38L150.91 8.38L150.91 8.38Q148.42 10.88 145.18 11.87L145.18 11.87L145.18 11.87Q141.95 12.86 137.79 12.86L137.79 12.86L137.79 12.86Q131.07 12.86 127.23 10.75L127.23 10.75L127.23 10.75Q123.39 8.64 123.39 5.12L123.39 5.12L123.39 5.12Q123.39 2.50 125.38 0.99L125.38 0.99L125.38 0.99Q127.36-0.51 130.43-0.51L130.43-0.51L130.43-0.51Q133.12-0.51 135.17 0.64L135.17 0.64L135.17 0.64Q136.38 1.34 136.96 2.24L136.96 2.24L136.96 2.24Q135.49 3.52 135.49 5.63L135.49 5.63L135.49 5.63Q135.49 8.45 138.05 8.45L138.05 8.45L138.05 8.45Q142.27 8.45 144.70-1.28L144.70-1.28L144.70-1.28Q145.41-4.16 146.05-7.23ZM177.79-0.32L177.79-0.32L185.86-42.24L185.86-42.24Q193.41-42.88 198.27-42.88L198.27-42.88L198.27-42.88Q203.14-42.88 206.27-42.46L206.27-42.46L206.27-42.46Q209.41-42.05 211.52-40.96L211.52-40.96L211.52-40.96Q215.74-38.91 215.74-33.28L215.74-33.28L215.74-33.28Q215.74-30.02 212.93-27.26L212.93-27.26L212.93-27.26Q210.30-24.77 207.42-24.19L207.42-24.19L207.42-24.19Q210.50-23.68 212.67-21.38L212.67-21.38L212.67-21.38Q214.98-18.94 214.98-15.17L214.98-15.17L214.98-15.17Q214.98-7.87 209.54-3.62L209.54-3.62L209.54-3.62Q204.10 0.64 193.41 0.64L193.41 0.64L193.41 0.64Q186.05 0.64 177.79-0.32ZM195.20-20.61L192-4.03L192-4.03Q192.58-3.97 192.70-3.97L192.70-3.97L193.28-3.97L193.28-3.97Q198.53-3.97 200.77-7.42L200.77-7.42L200.77-7.42Q202.43-10.11 202.43-15.04L202.43-15.04L202.43-15.04Q202.43-17.66 200.74-19.07L200.74-19.07L200.74-19.07Q199.04-20.48 195.20-20.61L195.20-20.61ZM204.93-33.22L204.93-33.22L204.93-33.22Q204.93-38.53 199.81-38.53L199.81-38.53L199.23-38.53L199.23-38.53Q198.98-38.53 198.59-38.46L198.59-38.46L196.03-24.96L196.67-24.96L196.67-24.96Q204.93-25.15 204.93-33.22ZM221.98-1.92L221.98-1.92L221.98-1.92Q220.48-3.58 219.81-6.21L219.81-6.21L219.81-6.21Q219.14-8.83 219.14-13.12L219.14-13.12L219.14-13.12Q219.14-17.41 220.61-21.31L220.61-21.31L220.61-21.31Q222.08-25.22 224.77-28.03L224.77-28.03L224.77-28.03Q230.27-33.92 239.36-33.92L239.36-33.92L239.36-33.92Q242.62-33.92 244.99-32.83L244.99-32.83L255.94-33.92L251.20-8.96L251.20-8.96Q251.01-8.19 251.01-6.78L251.01-6.78L251.01-6.78Q251.01-5.38 251.87-4.48L251.87-4.48L251.87-4.48Q252.74-3.58 254.02-3.46L254.02-3.46L254.02-3.46Q253.38-1.28 251.04 0L251.04 0L251.04 0Q248.70 1.28 246.08 1.28L246.08 1.28L246.08 1.28Q243.46 1.28 241.70 0.29L241.70 0.29L241.70 0.29Q239.94-0.70 239.42-2.37L239.42-2.37L239.42-2.37Q238.40-0.77 236.22 0.26L236.22 0.26L236.22 0.26Q234.05 1.28 231.14 1.28L231.14 1.28L231.14 1.28Q228.22 1.28 225.86 0.51L225.86 0.51L225.86 0.51Q223.49-0.26 221.98-1.92ZM235.49-27.90L235.49-27.90L235.49-27.90Q234.75-26.75 234.11-24.80L234.11-24.80L234.11-24.80Q233.47-22.85 232.42-17.63L232.42-17.63L232.42-17.63Q231.36-12.42 231.36-8.70L231.36-8.70L231.36-8.70Q231.36-4.99 231.94-3.90L231.94-3.90L231.94-3.90Q232.51-2.82 233.54-2.82L233.54-2.82L233.54-2.82Q235.58-2.82 237.09-4.77L237.09-4.77L237.09-4.77Q238.59-6.72 239.17-10.18L239.17-10.18L242.56-28.93L242.56-28.93Q241.22-30.08 239.65-30.08L239.65-30.08L239.65-30.08Q238.08-30.08 237.15-29.57L237.15-29.57L237.15-29.57Q236.22-29.06 235.49-27.90ZM278.53-22.46L278.53-22.46L278.53-22.46Q279.42-24.83 279.42-26.88L279.42-26.88L279.42-26.88Q279.42-30.66 276.35-30.66L276.35-30.66L276.35-30.66Q274.75-30.66 273.44-29.22L273.44-29.22L273.44-29.22Q272.13-27.78 272.13-25.98L272.13-25.98L272.13-25.98Q272.13-24.70 273.15-23.68L273.15-23.68L273.15-23.68Q274.62-22.27 278.40-19.97L278.40-19.97L278.40-19.97Q282.18-17.66 283.62-15.78L283.62-15.78L283.62-15.78Q285.06-13.89 285.06-11.30L285.06-11.30L285.06-11.30Q285.06-8.70 283.81-6.34L283.81-6.34L283.81-6.34Q282.56-3.97 280.32-2.30L280.32-2.30L280.32-2.30Q275.52 1.28 267.84 1.28L267.84 1.28L267.84 1.28Q263.68 1.28 260.48-0.90L260.48-0.90L260.48-0.90Q257.28-3.01 257.28-5.50L257.28-5.50L257.28-5.50Q257.28-8 259.10-9.47L259.10-9.47L259.10-9.47Q260.93-10.94 263.62-10.94L263.62-10.94L263.62-10.94Q266.30-10.94 267.97-9.92L267.97-9.92L267.97-9.92Q267.14-7.81 267.14-6.40L267.14-6.40L267.14-6.40Q267.14-2.18 270.72-2.18L270.72-2.18L270.72-2.18Q272.26-2.18 273.28-3.14L273.28-3.14L273.28-3.14Q274.30-4.10 274.30-5.76L274.30-5.76L274.30-5.76Q274.30-9.02 268.80-12.48L268.80-12.48L268.80-12.48Q264.32-15.42 263.30-16.58L263.30-16.58L263.30-16.58Q261.57-18.62 261.57-21.18L261.57-21.18L261.57-21.18Q261.57-23.74 262.78-26.18L262.78-26.18L262.78-26.18Q264-28.61 266.24-30.34L266.24-30.34L266.24-30.34Q270.91-33.92 279.04-33.92L279.04-33.92L279.04-33.92Q283.20-33.92 285.66-32.26L285.66-32.26L285.66-32.26Q288.13-30.59 288.13-27.78L288.13-27.78L288.13-27.78Q288.13-24.96 286.43-23.36L286.43-23.36L286.43-23.36Q284.74-21.76 281.66-21.76L281.66-21.76L281.66-21.76Q279.55-21.76 278.53-22.46ZM307.01-30.34L307.01-30.34L307.01-30.34Q310.46-33.92 317.76-33.92L317.76-33.92L317.76-33.92Q321.79-33.92 324.00-31.78L324.00-31.78L324.00-31.78Q326.21-29.63 326.21-25.70L326.21-25.70L326.21-25.70Q326.21-21.76 324.00-18.98L324.00-18.98L324.00-18.98Q321.79-16.19 317.70-15.04L317.70-15.04L317.70-15.04Q318.02-13.76 318.46-12.42L318.46-12.42L319.36-9.86L319.36-9.86Q320.58-6.59 321.54-5.44L321.54-5.44L321.54-5.44Q322.50-4.29 323.78-3.90L323.78-3.90L323.78-3.90Q323.07-1.28 320.51 0.13L320.51 0.13L320.51 0.13Q318.46 1.28 315.65 1.28L315.65 1.28L315.65 1.28Q307.39 1.28 306.30-11.46L306.30-11.46L306.30-11.46Q306.11-13.25 306.11-15.04L306.11-15.04L306.11-15.04Q309.31-15.94 311.55-18.94L311.55-18.94L311.55-18.94Q313.79-21.95 313.79-25.47L313.79-25.47L313.79-25.47Q313.79-28.99 311.30-28.99L311.30-28.99L311.30-28.99Q309.50-28.99 308.10-27.01L308.10-27.01L308.10-27.01Q306.69-25.02 306.05-21.63L306.05-21.63L301.82 0L288.90 1.28L297.86-44.80L310.72-46.08L309.25-38.46L309.25-38.46Q308.29-33.09 307.01-30.34ZM355.07-10.82L355.07-10.82L355.07-10.82Q356.67-9.73 356.67-7.33L356.67-7.33L356.67-7.33Q356.67-4.93 355.46-3.39L355.46-3.39L355.46-3.39Q354.24-1.86 352.26-0.83L352.26-0.83L352.26-0.83Q348.16 1.28 343.74 1.28L343.74 1.28L343.74 1.28Q339.33 1.28 336.74 0.32L336.74 0.32L336.74 0.32Q334.14-0.64 332.42-2.43L332.42-2.43L332.42-2.43Q329.02-5.82 329.02-12.03L329.02-12.03L329.02-12.03Q329.02-21.70 334.27-27.58L334.27-27.58L334.27-27.58Q339.90-33.92 349.70-33.92L349.70-33.92L349.70-33.92Q355.78-33.92 358.78-31.36L358.78-31.36L358.78-31.36Q361.02-29.44 361.02-26.30L361.02-26.30L361.02-26.30Q361.02-15.04 341.57-15.04L341.57-15.04L341.57-15.04Q341.31-13.38 341.31-11.97L341.31-11.97L341.31-11.97Q341.31-9.02 342.62-7.90L342.62-7.90L342.62-7.90Q343.94-6.78 346.37-6.78L346.37-6.78L346.37-6.78Q348.80-6.78 351.39-7.90L351.39-7.90L351.39-7.90Q353.98-9.02 355.07-10.82ZM342.02-17.79L342.02-17.79L342.02-17.79Q346.56-17.79 349.18-20.61L349.18-20.61L349.18-20.61Q351.81-23.30 351.81-27.58L351.81-27.58L351.81-27.58Q351.81-29.06 351.26-29.86L351.26-29.86L351.26-29.86Q350.72-30.66 349.63-30.66L349.63-30.66L349.63-30.66Q348.54-30.66 347.62-30.24L347.62-30.24L347.62-30.24Q346.69-29.82 345.73-28.42L345.73-28.42L345.73-28.42Q343.36-25.22 342.02-17.79ZM364.22-6.40L364.22-6.40L364.22-6.40Q364.22-8.13 365.12-12.48L365.12-12.48L368.51-29.76L364.74-29.76L364.99-31.68L364.99-31.68Q372.67-33.98 380.10-39.62L380.10-39.62L383.17-39.62L381.63-32.64L386.62-32.64L386.05-29.76L381.12-29.76L377.86-12.48L377.86-12.48Q377.02-8.51 377.02-7.17L377.02-7.17L377.02-7.17Q377.02-4.10 379.71-3.46L379.71-3.46L379.71-3.46Q379.07-1.28 376.77 0L376.77 0L376.77 0Q374.46 1.28 371.20 1.28L371.20 1.28L371.20 1.28Q367.94 1.28 366.08-0.77L366.08-0.77L366.08-0.77Q364.22-2.82 364.22-6.40Z" fill="#e49c49"></path></g></g><style>text {
  font-size: 64px;
  font-family: Arial Black;
  dominant-baseline: central;
  text-anchor: middle;
}</style></svg>